<?xml version="1.0" standalone="no"?>
<!DOCTYPE svg PUBLIC "-//W3C//DTD SVG 20010904//EN"
 "http://www.w3.org/TR/2001/REC-SVG-20010904/DTD/svg10.dtd">
<svg version="1.0" xmlns="http://www.w3.org/2000/svg"
 width="295.000000pt" height="295.000000pt" viewBox="0 0 295.000000 295.000000"
 preserveAspectRatio="xMidYMid meet">
<metadata>
Created by potrace 1.11, written by Peter Selinger 2001-2013
</metadata>
<g transform="translate(0.000000,295.000000) scale(0.100000,-0.100000)"
fill="#000000" stroke="none">
<path d="M1370 2847 c-3 -2 -32 -7 -65 -10 -64 -5 -185 -34 -275 -65 -272 -95
-520 -290 -682 -536 -145 -220 -217 -453 -223 -716 -4 -216 24 -372 101 -559
188 -454 603 -768 1104 -835 48 -7 268 -8 310 -2 123 18 295 60 315 78 5 4 15
8 22 8 26 0 187 83 277 143 99 67 257 217 328 312 40 54 82 122 130 210 42 78
111 285 123 370 28 202 25 348 -11 523 -52 255 -182 491 -374 682 -209 208
-466 340 -753 386 -46 8 -321 17 -327 11z m265 -192 c375 -42 728 -292 905
-639 120 -237 153 -474 105 -770 -4 -21 -18 -72 -31 -114 -94 -286 -280 -518
-539 -670 -62 -36 -198 -96 -244 -108 -9 -2 -42 -10 -74 -18 -88 -22 -142 -28
-252 -30 -302 -6 -601 110 -825 321 -72 68 -195 221 -192 238 1 5 272 8 602 8
432 0 602 3 609 11 20 24 84 162 107 229 49 145 71 357 50 502 -48 345 -244
641 -545 824 -29 18 -55 31 -56 29 -2 -2 -15 -60 -29 -129 -88 -433 -275 -821
-561 -1164 -62 -75 -211 -225 -222 -225 -14 0 -88 190 -107 278 -59 265 -24
539 100 788 177 353 551 611 929 640 44 4 81 8 83 9 4 3 128 -3 187 -10z"/>
</g>
</svg>
